<svg class=" " width="472" height="300" x="0.5" y="0.5" style="opacity: 1;" xmlns="http://www.w3.org/2000/svg"><defs></defs><path d="M0 0 L472 0 C472 0 472 0 472 0 L472 300 C472 300 472 300 472 300 L0 300 C0 300 0 300 0 300 L0 0 C0 0 0 0 0 0 Z" stroke-width="0" stroke="none" stroke-dasharray="none" fill="rgb(230,230,230)"></path><path d="M328.80053653859756 116.8056613734869C328.80053653859756 133.40283068674344 314.85259802174994 147.23380511445725 298.11507180153274 147.23380511445725 281.3775455813156 147.23380511445725 268.82440091615274 132.01973324397207 268.82440091615274 116.8056613734869 268.82440091615274 100.20849206023034 281.37754558131564 86.37751763251654 298.11507180153274 86.37751763251654 314.85259802174994 86.37751763251654 328.80053653859756 100.20849206023034 328.80053653859756 116.8056613734869 328.80053653859756 116.8056613734869 328.80053653859756 116.8056613734869 328.80053653859756 116.8056613734869M259.0608439543594 150C252.0868746959356 138.93522045782896 240.9285238824575 138.93522045782896 233.95455462403368 150 233.95455462403368 150 232.5597607723489 151.38309744277137 232.5597607723489 151.38309744277137 226.98058536560987 143.0845127861431 221.40140995887083 133.40283068674344 217.21702840381653 125.10424603011518 207.4534714420232 108.50707671685862 192.1107390734908 108.50707671685862 182.34718211169746 125.10424603011518 172.58362514990412 141.70141534337174 157.2408927813717 167.98026675602796 147.4773358195784 184.5774360692845 137.71377885778506 201.17460538254107 146.08254196789363 213.62248236748346 165.60965589148032 213.62248236748346 165.60965589148032 213.62248236748346 273.00878247120704 213.62248236748346 273.00878247120704 213.62248236748346 286.9567209880547 213.62248236748346 292.5358963947937 205.3238977108552 285.5619271363699 192.87602072591278 278.5879578779461 180.42814374097037 267.429607064468 162.4478769849424 259.0608439543594 150 259.0608439543594 150 259.0608439543594 150 259.0608439543594 150" fill="rgb(179,179,179)" fill-rule="evenOdd"></path></svg>